/* XPM */
static char * castle_4_xpm[] = {
"64 64 16 1",
" 	c #000000",
".	c #63636B",
"+	c #736B63",
"@	c #7A9293",
"#	c #4A4239",
"$	c #313129",
"%	c #181818",
"&	c #081010",
"*	c #5A524A",
"=	c #635A52",
"-	c #88867A",
";	c #959887",
">	c #A9A797",
",	c #AD9C84",
"'	c #C69C84",
")	c #D6AD94",
" ..............................  .+.@+....+.@+...........#.#... ",
" $$$$$$$$%%%%%%&&&%%%%%%&&%%%%%  %$$$%%%%%$$$%%%$$$$$$$$$$%%%%% ",
" $&.$&.$$&.%&.%&&.%&.%%%&&.%&.%  &.$&.%%%&.$&.%%$&.$&.$$$&.%&.% ",
" $ &$ &#$ &% &&& &% &%%%& &% &%   &% &$$% &% &$$$ &$ &$#$ &% && ",
" %%%%%&%$%%%%&&&&&&%%%%%&&&%%%%  %%%%%%%%%%%%%%%%%%%%%$$%&%%%&& ",
"  &&&& &%&&&&&&&&&&&&&&&&&&&&&&  &&&&&&&&&&&&&&&&&&&&&&%& &&&&  ",
" %%&&   &######$$$$$$$$$$$$$$$$  $$###*==+==******=====&   &&%% ",
" %%&%& &%****##**########$$$$$%  %$$$$$##*+---+--+=##$$%& &%&%% ",
" %%&$%&%==**##******####**##$$$  $$###$$$$#########$$###%&%$&%% ",
" %%&%$$############**##*==**##$  %$$$$$$$$$$$$$$$$$$$$$$$%%%&%% ",
" %%&%$$#$$$$$$$$$$$$$######*##$  $$$$$$$$$$$$$$$$%%%$$$$$$$%&%% ",
" $%&$#*======*##*=========*###$  $##************=**##$$$$$%%&%% ",
" $%&$##*#**=***########***####$  #*=====#$$#=======++-+++=*#&%% ",
" $$&%$##***================*#$$  %$$$$##***##$#$$$$$$$$$$$$%&%% ",
" #$&&%%%%%%%$%%%$$$$$$$$$$%%%%%  $$##**======**##$$%%$$$$$$%%%% ",
" ##&%%%%$$$%%%%$%%%%$$$$%%%%%%%  $$$$$$%%%&%%%%%%%%%%%%%%%%%%%% ",
" ##&%%%%%%%%%$$$%%%%$$#**#$%%%%  %%%%%%%%%$$$$$$$$$%%%%%&&&&%$% ",
" #$%#*======================*#$  #*+----;>>>,',>>>>>,>>>;-=#%$$ ",
" $$%*+-;;;;;,,;;,,,,;;---;,;-+*  =->>>,;-+++-----;>>>;>>;-+=%$$ ",
" $$%=+++-;>;------;--==**==+--*  $####********##$$$$$$$$$$$%%$$ ",
" $$%#***==*##$$$$$$$$$$####$$$%  $$########*##$####****##$$%%$$ ",
" $$%$$$$$$######$$$$$$$$$$$$$$$  %$####$$$$$$$$###$$$$####$$%$$ ",
" $$%%%$$$$$$$$##*######$###$$$$  %$$########$$$$$$$$$$$$$$$$%$$ ",
" $$%%$$$$$$$#####*###*========#  %$#******##***########$$$$%%$$ ",
" $$%%%%%$$$$##*=**###$$$$####$%  %$$#*=*###******#####*##$$$%$$ ",
" $$%%%$#****############$$$$$$$  %%$$###########***##****##$%$$ ",
" $$%$####$$$####$$$$$$$$###$$$%  %%$$$$$$$$$$$$$$$$#####*##$%$$ ",
" $$%%%%$$$$######***##$$$$$$$%%  %$#*==================*###$%$$ ",
" $$%%$$$$$$#######$####**####$%  %$##***=****########**####$%$$ ",
" $$%%%%%%%%%%$$$$$$$$$%%%%%%%%&  %%$##**====*=====#$$#==*#$$%$$ ",
" $$%%$%%%%%%%%%%%%%%%%%%%%%%%&&  %%$###$$####$$$$$$$$$$%%%%%%$$ ",
" $$%#*******##$%%%%%%$$$$$%%%%&  &&%%%%%%$%%%$$$$$$$$$%%%%%%%$$ ",
" $$%*+-,,,,',;->>>-;;>>>----+*$  &%%%%$$%%%%%$%%%%%%%%%%%%%%%$$ ",
" $$%#**=+------;-++--+==*=+--+#  &%%%%%%$$$$$$$#*===++---+*#%$$ ",
" $$%%$######$#####*##$$$$$$$$%%  $#=+---++++=**=-;>>>,,,;-+=%$$ ",
" $$%%$$$$$$$$$$##*########$$$%%  %%$$$$####$$$$$$$$$$$$$$$%%%$$ ",
" $$%#*==+=*#*=+--++=++-+=====#$  &%$$$$$$$$$$####$$####$$$%%%$$ ",
" $$%#==+===####$$$$$$#*===+==*#  $#***#*=+++++++==+++++===##%$$ ",
" $$%%%%$$$$%%%$#####$$$$$$$$$$%  ##==+==*#$$$$#*=++====+==*#%$$ ",
" $$%$$$########$$$$##########$$  %%%%$$$$%%%%$$$##$$$$$$$$$%%$$ ",
" ##%%%%$$$$$$$$$$$$$$$$$$$$$$$%  %$$$#####################$$%$$ ",
" ##%%$$$$$$%%%%%$$$$$$$$$$$$$$$  &%%%$$$$$$$$$$$$$$$$$$$$$$%%$$ ",
" ##%%%$$$$#*==***==*********##$  &%$$$$$$%%%%$$$$$$$$$$$$$$$%$$ ",
" ##%##*=+-+==*====*####**====*#  &%%$$$$##***=***********##$%$$ ",
" ##%%$$$$$$$$$$$$$$######$$$$$%  $#*=++-+++=====#$$#======*#%$$ ",
" $$%%$$$$$%%%$$$$$$$#*==***=##$  %%$$$$$$$$$$$$$$$$$$$$$$$$%%$$ ",
" $$%%%%%%%%%%%%%%%%%%%%%$$$$$$$  %%$$$$$%%%$$##**========##$%$$ ",
" $$%%%%$$$$$$$$$$$$$$%%%%%%%%%%  &%%%%%%%%%%%%%%%%%%%%$$$$$$%$$ ",
" $$%&%%$#####$$$%%%%%%%%$$$%%%%  &&&&&%%%%%$$$$$$$$%%%%%%%%%%$$ ",
" $$%+->;;--------+==========*#$  %%$$$$$$$$$$$$$$$%%%%$$%%%%%$$ ",
" $$%;,'))))))))))))''''''''',-=  $#*=====================*#$%$$ ",
" $$%#*+++=======*=*=-,'',--=*#$  #*+-;;;;>>;>>>>;;;;---;;-+=%$$ ",
" $$%#==+++++---;>>>>>>>;;---+=#  #=+--;>;;;--+++++++++-----=%$$ ",
" $$%=--;>;;----;--===+=======*#  $#*===*##$#######$$$$###$$%%$$ ",
" $$%*====+--+==***=====**===##$  %$$$$$#######$$$$$$$$$$$$$$%$$ ",
" $$%$%&%*######$$$#####*****=#$  &%$$$$$$$$$########$$$$%&%$%$$ ",
" $$%%& &%#**######$#######$###$  %%$$$$$$##***###*==#$$%& &%&$% ",
" $$%&   &---+++++-++=++++++===#  %%%%$$$$###***##$$$$$$&   &%%& ",
"%...%& &%......................  .+.@+....+.@+.........%& &%... ",
" $$$$%&%$$$$$$%%%%%%%%%$%%%%%%%  $###$$$$$###$$$$$$$$$$$%&%%%%% ",
" &&.%&.%%&.$&.$%%&.$&.$$%&.$&.$  &.%&.%$$&.%&.%$$&.$&.%%%&.&&.& ",
" & &% &%% &$ &%$$ &$ &$$$ &$ &$   &% &%$% &% &%$$ &$ &%%% && && ",
" &&%%%%%%$$$%%%$$$$$$$$$$$$$$$$  %%%%%%%%%%%%%%%$$$$$%%%%%%&&&% ",
" &&&&&&&&&&&&&&&&&&&&&&&&&&&&&&  &&&&&&&&&&&&&&&&&&&&&&&&&&&&&& "};
