/* XPM */
static char * castle_1_xpm[] = {
"64 64 16 1",
" 	c #292921",
".	c #8C8473",
"+	c #A59C8C",
"@	c #BBB59C",
"#	c #847B6B",
"$	c #6B6B65",
"%	c #636352",
"&	c #423931",
"*	c #181810",
"=	c #524A42",
"-	c #424239",
";	c #313129",
">	c #5A524A",
",	c #212118",
"'	c #101008",
")	c #787667",
" .++++@++@@@@@@@@@@++++++..#$$%%$####.#....++++++++@@@@@@@@@@@.&",
"*%....+.+++...#.#$%%$$$%%%%==-;;;;;-==-==-%$##%%$#.+++++...#..>,",
"*-$$$#.$.#####$$%%%%%%>-----;;;;;--------%$##%>%$++++++++.#$$$=,",
"*>$$$$$$$$$$$$#.##$##$$%%%>>%%%%$$$##$>%#.%%%>---%%$$#$$#$$#.#= ",
"*->>>%%##$$$$%%%>>>>>>>>>%%%%%%%>>>%%%%$#%>>--------;;;-->>%%>&,",
"*->>>>%$#%%$$>%%>>--->--%%$%%%>>%>->>---%-----;--------->%>%%>;,",
",&=>-->>$>%%%$#>-------=>>=-;->>>>>>----->----;---;;---->>$#>-  ",
",$$%%>%%>=->>>%>-->-&-%%>>>=--->>>>=====-----=>-------;--->%>- ,",
",&>>=-->=--------->;-----------------====----==--------------- ,",
",-----= >>>>=====%; ---->>--------------;---;;;;;;;---;-->->>=&;",
",;;---;;;;;;;;;--;,;;;;;;;;;;;; ;-;;;;;;;;;;;;;;;;;;;;- ;;;;;;, ",
"*, ,,,   ',,,,,,'**,'''  ,,,,,,,'';  ,,, ,',,, ,, ,,;,,       - ",
"*,;;  ;-;' ,,,,,,  ,,'' ,; , ;-;'';  ,,;=,';   ,' ;>;,;----=$## ",
",;->-----, ,  ----; ,''$>>=>->$;' %-;,;=>,' ->=;,-=>, ->>.$.++@&",
",--%->>--,,,;;;--=>; ' $%%=%>>#;' #-;, >$ '>%..>->=> ,-#$.#++++-",
",--%=%$>- ,,-===>-=> '-$$%=$$$% ' $-=,;>% '>%#+$-=== ,-#%.#++..;",
",;>>>>$%-,,,-;==$=>$ ' $$%=>#$% ' %==,>=% '=>$@.->%$ ,-.%.#..#$,",
",;%%$>>$-,, ; --%=%$ '>$%=>>$;&'' >=> %-> '=%$+#-%%$ ,-.$#..#%>,",
",;$%#>$%=,,;; --%=>$ '=$&-%>-  '' ==-;% = '-%$.%-%>$ ,-.$$.+.%>,",
",;$%.>%>=,';;  ->==$ '>%= $%$-&*' ===-%-= '->$.$-%=$ ,-+##+.+$$;",
",-$%.%%== ';;  -%==# '->=  ->)> '-===-=-=''==$+. %=# ,>+#.++.##;",
",-$%#%%>> ';;  -%=>#''-=-  ->$%''-=-;-= =''=>%.. %>#',>+#.+.#$#;",
",-$%#%$>> ';; -->=>$''--  ';-$>''->-;-= =''>>%.# %%%',>+#.++.#+;",
",-$$#%$>> ';;  ->->$''    '' ->''->-;-= =''>>%.. %$>',>+.#+++.+;",
",>$$%%$>>,,;;  -= =$'' =-     ='' >- == -''>$%..-%$>',-+++++.++-",
",>#%=$$>>,,;; =-= =%'' =-     ='' >- == -''=%%-.->%%',-.+@++$++;",
",>$+@$#>>,,;; === ->''-=-   -  ''-=- == =''>>$-.==>$',>#.+.##++;",
",>$..$$>>,' ; >=- ->''>---  -' ''>-- >% -''>>$%.=-=$',$#%.###+#;",
",>%###$=>,'   ==-  =''%=  - -' ''% = == -''>-%%.=>-%',##%###>.%;",
",>%###$-=,'  ,==='  ''=   - -' ''= = == -''= %%.%> %',%#%$$#-#>;",
",>%###$==,,   ==='' ''=   -->',''= =-== -''>=%%.%>-,',%.$###%.%;",
",>%$##$>-,,  --=='' ''=-  %$$,'''= =-=% =''%$>%.%=- ',%+#$$#>.$;",
",=%$###>-,, ---=='''''=- =>$=''' = --== >''$.>$.$-=,',%+.%%#..>;",
",=%%##.>-,,,--=->'' ''=> >--;''';=> --$->''$.>..# =,',%+.%%#+#>;",
",=%>$#.>-,',----> ' ''-=->=;'''';-%--=$->''$#=+#.-;,',>+.%>#+.>;",
",->=%#.%-,',--;-> ' ''-=-- =>-'';-#- %#-=''%.%.@.% -',>+.%%#++>;",
",=>>;>.$-,,, --=>   '' -   ;>>'', $--$#-=''>.$+@.%-#',-..%%#+.+;",
",=>>-=.%=',, ;-=%   '' -   -==,'' % -%%==''>##@ $$$@',-#.%$#+).;",
",=%-$%.#=',, ;;=>   '' -   -%--'' > -%%>=''>.$@@..%+',-##%##+->;",
",=%=$>.+=',, ; =- ' '' -  ==#-='' =  $$==''=#>..#$-#',-$$%##+@=;",
",=$##>#+>,,,;; >=   '''- -- %>%'''-  $%-= '=%>$.%#>%',;%%$$#.+-;",
",=%##>$.>',,;-=%%   '''-    %#%'''   >%-= '->=%.#>.%',;>%$$#.+#,",
",=%.#$#.>,',;= =$=  '''-    %$='''   >%== '->=>##>#.',;>$$#++.@,",
",=%%>>#.>,',;- -=>=-''     -%- ''   -%$-- '-===$#>>%,,->$%#@+.+,",
",=$>%#..>'',;- -=%>=''      = -''   ->$-= '&=-=%$=-%,,->%$.@+.+,",
",=$>$$..='',-=  =%%>''' '     -'''  ->#-= '&-&-%#%%%,,;%>%.@+#+,",
",=>%%=#.='',--  -=%='''   ;   ='''  -=$== '-&==%)%>=*,;%%%#@+#+,",
",=>=>>%$='',;-   -=='''   -   ='''  -=$== '- ==%)>=>',;%%%$@+$+,",
",->=%%>%='',;-   === '  -;-;  = ''  -->-= '---=$$%-=',-->%$++$+,",
",;>=>%-%-'',;;,,,==> '   ;;;  = '    =#== '---=%$%--',-->>%+.$+,",
",;=->-=%-'', ;  -#>% ' ,,     = ',;,,-#=> '-;;;>%>,-',-->>%+.$.,",
",;----%=-'',,,,,-$>>,',,,,,,,,-,''''' =;-,' ,' --= ;,,-->>>#$$#,",
"*;;------',,,',,;=>%,','''''' - ',,,, -;-'','',;;=;;,,-->>>$.#.*",
" .+++++.$#++++@@@#=>.+...#$$%=%)$))%%$$)))%$$$%%%$..+++@@++@@@+;",
"*%$##..#$#..####..# ->$$%%>>-----;;;----===$$##%%$#.+++++...#.%,",
"*>%$$$#.-.#####$$#+- %%>-----;;;;;--------%$##%>%$++++++++.#$$=*",
"*%#$$$$$@#$$$%>%##$..#$$%%%>>%==-=%>)#$>%#.%%%>---%%$$#$$#$$##%,",
",&>>==%$#$%%$>>%%>>>>>>>>>%%%%%>=>>>%%%%$#%>>--------;;;-->>%>=*",
"* >>>-=$$$%%$$>%%>>--->--%%$%%%>>%>->>---%--------------->%>%>=*",
"*,-----=>%>%%%$#>------------;->>>>>>----->----;;--;;---->>$#=&*",
"*,----->>%-->>>%>--------------->>>>---------;;;;------;--->%=&*",
"* ------=>=--------;;;;;-------------;;------;;,,  ;---------;;*",
"*;----==>%=--=======;;-;;--;;;;;;;;;;;;;; ;;;,,'',,     ; ;  ,**",
"'* ;;;; ,,;  ,  ; ;- ,          , ---;;   , ,,,''',,,,   ,,,,*'*"};
