/* XPM */
static char * castle_2_xpm[] = {
"64 64 15 1",
" 	c #211818",
".	c #292121",
"+	c #080800",
"@	c #393129",
"#	c #4A4239",
"$	c #524A42",
"%	c #5A524A",
"&	c #6B675A",
"*	c #6B6352",
"=	c #736B63",
"-	c #8C8473",
";	c #948C7B",
">	c #9C9484",
",	c #D0BDAE",
"'	c #A9A797",
"       .....        ++++   .        .          .. +     . . ....",
".@@@@@@@@@@@@@#..##$##$######## .#####@#@@@####..@.@@@@@@@#@@@#.",
".@@##@#####@###@@$#%$#%$$$$$$$$..#@@#$#$#$$###$@.@@@####$###@#$@",
".#$$$##$#$$$$$$..%&&&$&$$%%#$&&@.%#$%%$%%$%$$$%. @#$$$$#$$$$$$%@",
"@%#%###%#%%%#%%@@*=*=%=%#%*#**%..#*%%*%%%%%%%**@ #%*%%**%%%#%%%@",
"@%$$$%$%%$$%%%%@@%&%=@=&&&&$$&%@@%&&%&%&%%%%&=&@@$%%%&%%%%%%%%%#",
"@%*%%*%=***%*%%@@====@*-=%**==*@@=====*****===* @%************%$",
"@&&%%%%-&%%%%%%##-;-; $-&%&-;-&#$-----%%&%----&..%%-&&-&&%%%%%%$",
"@==**=*==**=*==%#-->= >%***---=##----====---=-=.%=====-==*==***%",
"#*==*=====**==*##>->#-,,#==-=-=#%---==-=->--===#%*===-===**==**%",
"#==*-=====-=**=##=>> #==>#--=-=%%==-=--->>-===-##====-=**====**%",
"#===*=====-=**=##=>=#---=>#->>=#*-==---->------##====-=**==-=**%",
"%==**====--=*==@#=>#==->-- >---%%--------->->--%%===--=*===-=**%",
".*****=*===**--@@==#=>>-=- %-=-*%>-->>>--------%%=*===**--=====%",
"#*=====-=*=*==-@@#=.==>---% =--%#>>->>>--=--=->%%=-=*=*==-*====%",
"%@#*%%@@@@@@@@@@@@......@@. .##%%###%%%%##%##%%%%%%#%%@#%##%%%%%",
"@#**%#@@@@@@@@@@@@@@@@@@@@@%##%#%%%#%#%#%###%%%%%%%%%%@###%%#*%#",
"->-->-*#=--=>>>->>-=-=-@@--=-=====*=-==%%>---=>>>->>---#@=>>-->>",
"-------%,->->>>->>->=--@@==============%%-=->->>>->>>>>##=->->>>",
"=--=---%>->>>'=-->>>->-@%*=*==*========%%--->>>'=-->>-=@#->--->-",
"==>----%%>>>>>--->>->>=%@==============%%>->>>>>--->--=##>'>----",
"---->--%%'>>>'>->--->>=@@*--=======-==-%#--'>>>'>->->--%#>'>--=-",
"---->=-%%-=->->-===----%@*======--=-=--%#=>>->>>>>>-->-@#>>->---",
"=->->--%%->------==-==-%#=-====---*->-=%#-->>>>>>>>>>>-##--'-=--",
"---->--%%>>--->=---->->%%=-==*=====-=--#@--->>''-->----%#->>>>>>",
"==-=---%*>>--->---->>>>%%==-=*=======--@#-->->''>--->>-%%>>->>>>",
"--==---%*->>>>>>>=-->>>*%==========-=-=##->>>>>>>-->>->%%--->>>>",
">-=>-==%=->>'--->->>>>>**=*====-**=---=##->>'--->>>>---%%>>->>->",
"--=>-==%#>>>>'>>>=>>---*%=*===-=*-==---%%>>>>'>>>->>==-%%>>-'>>-",
"=---==-%.->>>>>>>>>>>>=%%======*=-==--=%#->>>>>>>>>----*%->>>>>>",
"----==*@ ->>>>>->==>>=%%#*====*=-===--=##->>>>>->'>>-->%@->>>>->",
"%%%*%#@@@@@@@############%****%%%%%%######%**%***=**%%%%##%%%%%%",
"#*%**%@@@@################%***%%%#......###*%*=*=****%##%%%=##%%",
"#->>>>-->>->---@@%>>''->->>>-==%%>->>.>->>>>>>>=*-->>->---->>->%",
"#>>->->>>-->>--@#*'>'>>'>>>>---%%>>>'.%---->>>>=*>>>-->>--->>--%",
"%>-->>>>>>->>>-@%>>>>>>-=->>---%%>>>># =->>->>>=*>>>>->>>->-==-%",
"%>->->>>>>>----%%--'>'->-==>-=-%%>>--= %->>>>>>=*>>>>>---------%",
"#>>>-->->>---==%%-->>----====--%*>>->>% ->'>>>>=*>->>---==->>>-%",
"%>>--=->-->'---%%--------==----%*>>*->- >>>>>>>=*>>->----=->>--%",
"%--=-->-=-''>-=%*---=->-==->---%='>>=>> ->>'>--**->>->-===>>>--%",
"@----->->-----=%*->-*->-=->----*=>>>--- >>>->=-%*=>>>>-=-->--->%",
".=-=->-->--->--%*>---==-->->-->**>-----%>>>->--%%=>'-------->>>%",
"@===->>---->-->**>----=--------%=>->==>,%'-->--*%->>--=----->>-%",
"#-=------>>>-->**->>--=-=-->-=-*=>--*->>,%->->-%%->>--->>--->'-%",
"%---->=-->'>---**->>-=----->>--*%>-->--'>,%-->>##--->>>'>>-->>-%",
"%-----==-'>>-=-*%->=*=-=-------%%'->>--'-- >->>#%>-->>>>'-=>>>-%",
"#------->'>>-->%%==-->==->-=->-%*->>>->>=- -->>%#-->>>->>-=>>>>%",
"##%#%%%%%##%**%#%%#**%%#%**#**%%%%**%%#..   .#%###@%%%%%%%#%%*@@",
"%#%##%%%%#%**%@%#%%%#%%##%%%%*%%#%*%%%%%##..############%##%**.#",
"--=----%*==---=**=-*%*=*%==------->'>>>%%>>-'>>>->--->-#%=-''>==",
"=-=----%%===--**==%****%%==-->---->'>>>%%'>>>>>>->>--'-%%-->>>==",
"------>*%=-=-==*%**%=**#@---->--->>>>>-%*>>'---->>>>>--#%>-=>=*-",
"---->>>%#=>=*===*%%%*==%@-->-->>>--->>-%*>'>--->>>'>---.%---'==>",
"---->--%.-=**==**%***==*%->>--->--->'--**'>>>>-->>>>->-.%>->>==>",
"->->---#.-===-==**=*=*=**'>>>==>>-->>--**'->>>-'---->>% %>>->==-",
"->->=--# ===-===-*****=#%>---=>>=->>>->**'>>>>>>>---->. *>>->'-=",
"-;;----# $-&%&&&&%$%%&&@@--;----&-;;-;>$$>;;>-;---;;-&. %--;>>;-",
"=-===--$  *%**%**%%$%**@@==--====--=-;-@$--;-=-------$* $=---;--",
"&&&&&=-@++#%$$%%%$$#$%%@@%%==&&&=&==-==##&--=&==&&==%#= @=-===&&",
"%*=*==*@+;+*#%*####@#%%@@******==**==*=@@=======**=%@*=@@=--=**%",
"%%%&=%%. #-@$$$$#@#@##$@.&%%&%&%&%&&&%%@@=&&&&&&&%&@&%=@.&===&%%",
"$%%%$#$. ##=@###@@@@@#@.@$#$$%$%&%$$%$$@@%$&$$%%$%&+%$%.@&&&&%$$",
"#%$#@@%.+@@@+##@@@.@@@@..###$#$%%%$#%%%@.$$%$$###%@+@##..$$%%#%$",
"     +++++++++   .    .     ...... ......... ..  +++++  ....... "};
