/* XPM */
static char * castle_3_xpm[] = {
"64 64 15 1",
" 	c #4A4231",
".	c #736B5A",
"+	c #FCFFFF",
"@	c #D1D1CF",
"#	c #F7F7F7",
"$	c #847B6B",
"%	c #393129",
"&	c #63634A",
"*	c #393929",
"=	c #A59C8C",
"-	c #948C7B",
";	c #D7CAB8",
">	c #A9A797",
",	c #524A39",
"'	c #B9B5AF",
" .+@#$%  % %%%%%%%%%%%%%% &&%%%%%** %&  .=%%% -; % &  %%%%%  && ",
";>->@>>-=;>@@=-%$$$$.$$.   *%%%% &,.&&=$...$$$.&$.**,&*%%* &,&$-",
"$$$$--&  &&&..-$.&&&& *, &&*****   *&  &$.&. &.&,  *%%%%%%*%,$$.",
"$$$--.$$&&&& % .&.$$.&&.&.$ , &,&&&.$&&-$..&&$&** * &**%%*&*&$-$",
"$-$.&,&$$$.. ,%$ $-$....&&., ,&, & &. $$$. &..&&&,%%,& * &&*  ..",
"--..&&  % && *&$  $--.-$.$-- &.&,&&.& .-.&&&...&., &..$& ,&$..&.",
".& %  %%%%%%&.=$..&&...   &&  &&&&&.. % &,%       & %%  %%.&&&..",
"%% %%%%%  %%%%%> %%%%%%%%%%%%%%%%%%%  %%%%%%%%%%%%%%% %%%%>%%%%%",
".-=$%->-$$$$$;=-$$$ .$$=$&&*&&&* %%**** %%&$---%.=---@-$$$..&...",
"&& &,&&&&.. .==$&&&  ,&%  &%%*,%%%% * ,,&     .;>.&&&$$$$.&&&$.%",
"$$$ ,$ $---.&--$ .$ &,,,* % &,& %%% $$$$&&.&&&&&&$. $=-& &. &..&",
".$$&.$&$$$-&&$-$ &.*,,* &=&*.&&,&% $.$$$.&,,&&&&&$.& $$&&$$&& &&",
"&.&&&$ ,&..&&--$&&,   * .-> .&&  *,&$$$&%%   % =.&&&&-$&%%%%%.&.",
".$&&-& &&&  &--$& % ***&% =. .&%%%%%.$$&   &  .#%%%%%$-%%%%%%   ",
".&.&;. .$.&  %%%%%*&   *&.@=.  &$$&%%%%%&&&%&>@+$%   %% -=$#- $$",
"-==-$>>;>-$&&,&&$&,.,,&% .&=;>'.&,$& *&&$-.  &-.$==>>>>@@;$$$---",
"$&&$ =>-$. *   *,,*,&,*%%*%&.$$. * . ** , &,&$-$.$$-$$->$-.$  .&",
"&,*.&=;=-&, * %%    && %&&&---$$* , & =&* $.$-=$.$$$$-=-$-&$&&.&",
" ,..&.-=-& &&& %%&&$$& %,$.$---$.   &.$&&&$$$->$..$$$$-$.-..&&  ",
" ,.$..$$..&.$& **&.=$$,*,..$-$.&.&  ,&$$.$$--->---$=$-==$$$.&&& ",
".$$$&-'=-=$$& , . =@;$, &&*$;-...&&..&$---$...$$.&&&&.. &..%%%% ",
"%%%%%%%%%%%%%$ &*%%%%%%%%%%%%%%%%%%% $%%%%%%%%%%%%%%%%%%%%=.  % ",
"-;>@=-.$>==-=@..,*&..&=->=>&&&&, *&$-.,$$$$--.%%>-.$=$$&.-.-.&&.",
"&& .&-..-.&&,&, ***    ,&&&%*, ,&%*& , &.$&.-%% $&*, &$&.- $.$-$",
"..&..=&&&,  &., ******  ,&,,*&&  &&,.....$&.- ;-.  *,,  $$$.$$$$",
"$$.&.>& &., &$&& %*%* ,,*,&..&.*&,* ......&.- >$$...&*%&$$&..$$$",
"-$&&$=,,** &.--.,**%* &&&,&&...&*&&,&.&...&$$ >;  $   ,$$$&$&&$-",
"$.&.$;,&.  &$>=.& ,&&.=$$. &$&.$.& $-.&&&$&$=%$.&&&,&. --$ &  &.",
" .. .$%% *%%% %%%%  %   %%&%% %%%%%%%%%  %%%%% *%%  %%%%%%%% && ",
"=$->=$==.->=-$$$. &*,..&&.--$&&-&--&%%$$$-& ,& *  &$&$---$ $=>>>",
"  .& &&%%&>=$ $.&  &  ..$&&--$&..--;. &  &&,& &, & *, && ,&...&.",
"%.$..=-=..>>$ $.,*&&&&...&$-$-$.-=. $$.$..& .&***%% &*&& %& ....",
" .$.$$$-..-=$&$.$  &&&...&.-$$$&$=$..-.&& ,,,& ** %%* .**%*&&&..",
"%&.&$$$- &==-.$$$  &&&&....$$-. $-.&.&&  *&  &&&*,*% &.*,&-$.&..",
"% -$ $$$  ;>-&.&$  &  $$&$...&&%=$. &&   *  &.$. *   &.& %=-    ",
"%%%%% %%%.%%%%  $%%%% %%% %%%%%%%%%   %%%%%%%%%%%%%%      && %%%",
"$->-=-##++-$$-&%;=>;-$>;=$%&@+;=-->$ &$$ &=.,&$. %&&&..$.$$==-$$",
"&..  &-$>=. & %%$-=$ % ..  ..=$$$-.&-&,&&%,$$&&$&%&**,    $$$$& ",
"$$&&&...-$. &.$ $-- % &&   -.%%--....& %%%, ..$$$%&. *&   -$$$&.",
".& & .$.==& &&$..=-&     % >$.$$-... .* %***&.&&.% ..%,&  -$$$.&",
"& &$&-..-$.&&&&..>>$.%  &  =-.$==  %  %*  * , ..@  &. ,&&&-$-..&",
"& %%%$& $.  &% &.$$.   %& %$=-.&% *%%%%%%%** % @.%%%     &&&.&  ",
" %&-$;-%    %%%%%%%%%%%&%% &   %  & **,**%**, .$ % && %%%%%%%% .",
"+#+++;=-@@+###>&$;@##;'$$$=-=>$->.$>>>#=-=''>>-;#;$>>-.&& $-.-==",
"=-.$&,.$$&..$.$&.  .$$,,&&.-=$..&,&&&..&&  -$&& &&&-$$$.&$&&.$=-",
"$$,&&&.&$ &.$..& * %* *,&.$>==$$.$.&%%*...$--$$...$-$-...>&& $$$",
"$$ * *&.$&,&..,&.&&%%*% ,&$;>=$$.,**,$&..&$>=$&...$$$$..$> &&.$$",
"$-*,, ,.-'-.$&.=$&.$&,&$.$>#;;$$$,  &.$$..-;=&$..$&=>-$&&@$%&$$$",
".$&&&..&$=$.& %*&..$. &-$$$=$$.&&.$&%,&....$$-$ & %&&&  %. % &.&",
"%%%%%%%%%%%* % & % %%%%%  %%%%%%&   --&&&  %% &$&.-&&&.$;+. %%%%",
">#;@@;->#;@@;=;@=;;;'>=>..=-&>;>>>=>$..$-==;=$@+-;>##>@+=.$$$$& ",
"=- ..$. % %  %   $& .&* *,&.      %%&   & &% &%% .&=-&&% &.&...$",
"&%&$.&-=%  &  .... **%*  *&&$&   * &&&& &.. ,&&&.. $.&&%     &&.",
" %&..$$$%%%%%%&$&% *%*** *&..%   ** .&&&&&&&&&  .$%&  %%       &",
".&...%%. %%&&%&.&&,* ,&,*.&&.&& & *&.&  &&&&... .$%%%%   && &&&&",
" &&.$% =&$====$.$--, &&&..$$>%&. %..&$&.&& &.$& $.%%%%%% &&%%%%%",
"%$.%%.;&%%%%%%%%%%%%%%%%%%%%&%%%% %%%%%%%%%%%%%% $ &&$&& %%.>$$$",
"+@#>;=-.$=>>=>-=$...$-======-==-$-&.-..$-->=->;>;>;#>>;=-;@>==>-",
"..$$& ,&.=---=>=&.@;;=$$$$...  *, &$$;>%%&   &&&%  %%%&&&%%% %% ",
"&&&& %&&&$$...,.$-.$=$&$$.&,&&&,&&..$.$  $ % ..&%     $$ %%%%&  ",
".&,***$$&&&...&>-  &.$..&,&$,, &.$$$$.$%%   &..&%   % ..%%%%% .&",
"&&& * ,,&$-$$$.=-&%  $&..%*=.,*,,&..$$.%     ..& %    .&&&%%%% &",
".$.&&$-$-=====-@$&%%.>$$=&$=>$&&$&$>>.$.%% & &.    %%&.&% %    %",
"%%  &&&      & %..%% & % %%%% %***   &-.&&.$.  &&%%%%%%%  %%%% &"};
